<svg width="48" height="48" viewBox="0 0 48 48" fill="none" xmlns="http://www.w3.org/2000/svg">
<circle cx="24" cy="24" r="24" fill="#EF6D58"/>
<path fill-rule="evenodd" clip-rule="evenodd" d="M25.5128 35.9559C31.4476 35.4434 35.9991 30.5852 36 24.7619C35.9992 19.6868 32.5202 15.2413 27.5089 13.9122C27.6419 13.4597 27.5495 12.9724 27.2595 12.5964C26.9696 12.2205 26.5157 11.9996 26.034 12H22.9675C22.4858 11.9996 22.0319 12.2205 21.7419 12.5964C21.4519 12.9724 21.3596 13.4597 21.4925 13.9122C15.7421 15.4356 12.1344 20.9996 13.1799 26.7325C14.2255 32.4654 19.5779 36.4683 25.5128 35.9559ZM30.4618 18.9118L30.465 18.9099L30.462 18.9114L30.4618 18.9118ZM30.4618 18.9118L22.8755 23.1479L18.5365 30.5674L26.126 26.3294L30.4618 18.9118Z" fill="white"/>
</svg>
